<svg width="32" height="32" viewBox="0 0 32 32" fill="none" xmlns="http://www.w3.org/2000/svg">
  <!-- Background circle with gradient -->
  <defs>
    <linearGradient id="bgGradient" x1="0%" y1="0%" x2="100%" y2="100%">
      <stop offset="0%" style="stop-color:#9333ea;stop-opacity:1" />
      <stop offset="50%" style="stop-color:#3b82f6;stop-opacity:1" />
      <stop offset="100%" style="stop-color:#06b6d4;stop-opacity:1" />
    </linearGradient>
  </defs>
  
  <!-- Background -->
  <circle cx="16" cy="16" r="15" fill="url(#bgGradient)" stroke="rgba(255,255,255,0.3)" stroke-width="1"/>
  
  <!-- Wi-Fi arcs - simplified for small size -->
  <path
    d="M16 8C13.5 8 11.2 8.8 9.4 10.2L10.8 12.2C12.3 10.8 14.1 10 16 10C17.9 10 19.7 10.8 21.2 12.2L22.6 10.2C20.8 8.8 18.5 8 16 8Z"
    fill="white"
    opacity="0.9"
  />
  <path
    d="M16 14C14.8 14 13.8 14.4 13.2 15.2L14.8 16.8C15.3 16.2 16.1 15.8 16 15.8C16.9 15.8 17.7 16.2 18.2 16.8L19.8 15.2C19.2 14.4 18.2 14 16 14Z"
    fill="white"
    opacity="0.7"
  />
  <path
    d="M16 19C15.6 19 15.2 19.1 14.9 19.3L16 20.5L17.1 19.3C16.8 19.1 16.4 19 16 19Z"
    fill="white"
    opacity="0.5"
  />
  
  <!-- QR code pattern - simplified -->
  <rect x="20" y="20" width="3" height="3" fill="white" opacity="0.9" />
  <rect x="24" y="20" width="3" height="3" fill="white" opacity="0.9" />
  <rect x="20" y="24" width="3" height="3" fill="white" opacity="0.9" />
  <rect x="24" y="24" width="3" height="3" fill="white" opacity="0.9" />
  
  <!-- Additional QR squares -->
  <rect x="20" y="27" width="3" height="2" fill="white" opacity="0.7" />
  <rect x="24" y="27" width="3" height="2" fill="white" opacity="0.7" />
  <rect x="27" y="20" width="2" height="3" fill="white" opacity="0.7" />
  <rect x="27" y="24" width="2" height="3" fill="white" opacity="0.7" />
</svg> 