<svg width="32" height="32" viewBox="0 0 32 32" fill="none" xmlns="http://www.w3.org/2000/svg">
  <!-- Background circle with gradient -->
  <defs>
    <linearGradient id="bgGradient" x1="0%" y1="0%" x2="100%" y2="100%">
      <stop offset="0%" style="stop-color:#9333ea;stop-opacity:1" />
      <stop offset="50%" style="stop-color:#3b82f6;stop-opacity:1" />
      <stop offset="100%" style="stop-color:#06b6d4;stop-opacity:1" />
    </linearGradient>
  </defs>
  
  <!-- Background -->
  <circle cx="16" cy="16" r="15" fill="url(#bgGradient)" stroke="rgba(255,255,255,0.3)" stroke-width="1"/>
  
  <!-- Wi-Fi arcs - matching the logo design -->
  <path
    d="M16 6C12.5 6 9.2 7.2 6.4 8.8L8 11.2C10.3 9.5 13.1 8.5 16 8.5C18.9 8.5 21.7 9.5 24 11.2L25.6 8.8C22.8 7.2 19.5 6 16 6Z"
    fill="white"
    opacity="0.8"
  />
  <path
    d="M16 12C13.8 12 11.8 12.6 10.2 13.8L11.8 15.8C12.9 14.9 14.4 14.4 16 14.4C17.6 14.4 19.1 14.9 20.2 15.8L21.8 13.8C20.2 12.6 18.2 12 16 12Z"
    fill="white"
    opacity="0.6"
  />
  <path
    d="M16 18C15.2 18 14.4 18.2 13.8 18.6L16 21L18.2 18.6C17.6 18.2 16.8 18 16 18Z"
    fill="white"
    opacity="0.4"
  />
  
  <!-- QR code pattern - matching the logo design -->
  <rect x="20" y="20" width="2" height="2" fill="white" opacity="0.8" />
  <rect x="23" y="20" width="2" height="2" fill="white" opacity="0.8" />
  <rect x="20" y="23" width="2" height="2" fill="white" opacity="0.8" />
  <rect x="23" y="23" width="2" height="2" fill="white" opacity="0.8" />
  
  <rect x="20" y="26" width="2" height="2" fill="white" opacity="0.6" />
  <rect x="23" y="26" width="2" height="2" fill="white" opacity="0.6" />
  <rect x="26" y="20" width="2" height="2" fill="white" opacity="0.6" />
  <rect x="26" y="23" width="2" height="2" fill="white" opacity="0.6" />
  <rect x="26" y="26" width="2" height="2" fill="white" opacity="0.6" />
</svg> 